<svg width="16" height="14" viewBox="0 0 16 14" fill="none" xmlns="http://www.w3.org/2000/svg">
<g id="Group 14">
<path id="Vector" d="M13.8334 3.11113H3.46302C2.90626 3.11113 2.37932 2.87001 2.01442 2.46363C2.3709 2.06567 2.88876 1.81483 3.46302 1.81483H15.1297C15.4881 1.81483 15.7778 1.52446 15.7778 1.16669C15.7778 0.808909 15.4881 0.518539 15.1297 0.518539H3.46302C1.67349 0.518539 0.22229 1.96974 0.22229 3.75927V10.2407C0.22229 12.0303 1.67349 13.4815 3.46302 13.4815H13.8334C14.9073 13.4815 15.7778 12.611 15.7778 11.537V5.05556C15.7778 3.98159 14.9073 3.11113 13.8334 3.11113ZM14.4815 11.537C14.4815 11.8942 14.1911 12.1852 13.8334 12.1852H3.46302C2.39099 12.1852 1.51858 11.3128 1.51858 10.2407V3.75798C2.0721 4.17214 2.75265 4.40742 3.46302 4.40742H13.8334C14.1911 4.40742 14.4815 4.69844 14.4815 5.05556V11.537ZM13.1852 8.2963C13.1852 8.65407 12.8949 8.94444 12.5371 8.94444C12.1793 8.94444 11.8889 8.65407 11.8889 8.2963C11.8889 7.93852 12.1793 7.64815 12.5371 7.64815C12.8949 7.64815 13.1852 7.93852 13.1852 8.2963Z" fill="#D01717"/>
</g>
</svg>
