<svg xmlns="http://www.w3.org/2000/svg" width="20" height="20" viewBox="0 0 20 20" fill="none">
  <path d="M1.72854 14.4882C1.8131 14.6918 1.97492 14.8536 2.17854 14.9382C2.27873 14.9809 2.38631 15.0035 2.49521 15.0048H6.66187C6.88289 15.0048 7.09485 14.917 7.25113 14.7607C7.40741 14.6045 7.49521 14.3925 7.49521 14.1715C7.49521 13.9505 7.40741 13.7385 7.25113 13.5822C7.09485 13.426 6.88289 13.3382 6.66187 13.3382H4.50354L9.16187 8.67982L11.9035 11.4298C11.981 11.5079 12.0732 11.5699 12.1747 11.6122C12.2763 11.6545 12.3852 11.6763 12.4952 11.6763C12.6052 11.6763 12.7141 11.6545 12.8157 11.6122C12.9172 11.5699 13.0094 11.5079 13.0869 11.4298L18.0869 6.42982C18.165 6.35235 18.227 6.26018 18.2693 6.15864C18.3116 6.05709 18.3334 5.94816 18.3334 5.83815C18.3334 5.72814 18.3116 5.61922 18.2693 5.51767C18.227 5.41612 18.165 5.32396 18.0869 5.24649C18.0094 5.16838 17.9172 5.10639 17.8157 5.06408C17.7141 5.02177 17.6052 4.99999 17.4952 4.99999C17.3852 4.99999 17.2763 5.02177 17.1747 5.06408C17.0732 5.10639 16.981 5.16838 16.9035 5.24649L12.4952 9.66316L9.75354 6.91315C9.67607 6.83505 9.58391 6.77305 9.48236 6.73075C9.38081 6.68844 9.27188 6.66666 9.16187 6.66666C9.05186 6.66666 8.94294 6.68844 8.84139 6.73075C8.73985 6.77305 8.64768 6.83505 8.57021 6.91315L3.32854 12.1632V10.0048C3.32854 9.78381 3.24074 9.57185 3.08446 9.41557C2.92818 9.25929 2.71622 9.17149 2.49521 9.17149C2.27419 9.17149 2.06223 9.25929 1.90595 9.41557C1.74967 9.57185 1.66187 9.78381 1.66187 10.0048V14.1715C1.66319 14.2804 1.68584 14.388 1.72854 14.4882Z" fill="#D01717"/>
</svg>