<svg xmlns="http://www.w3.org/2000/svg" width="20" height="20" viewBox="0 0 20 20" fill="none">
  <path d="M4.74054 9.11875C4.55096 8.91038 4.44446 8.62781 4.44446 8.33318C4.44446 8.03855 4.55096 7.75598 4.74054 7.54762L9.29117 2.54754C9.4808 2.33923 9.73797 2.22222 10.0061 2.22222C10.2743 2.22222 10.5314 2.33923 10.7211 2.54754L15.2717 7.54762C15.4559 7.75718 15.5578 8.03785 15.5555 8.32918C15.5532 8.62052 15.4469 8.8992 15.2594 9.10521C15.0719 9.31123 14.8183 9.42808 14.5531 9.43062C14.288 9.43315 14.0325 9.32115 13.8418 9.11875L11.0174 6.11093L11.0174 16.6666C11.0174 16.9613 10.9108 17.244 10.7212 17.4523C10.5315 17.6607 10.2743 17.7778 10.0061 17.7778C9.73792 17.7778 9.4807 17.6607 9.29106 17.4523C9.10141 17.244 8.99487 16.9613 8.99487 16.6666L8.99487 6.11093L6.17045 9.11875C5.98081 9.32705 5.72364 9.44407 5.45549 9.44407C5.18735 9.44407 4.93018 9.32705 4.74054 9.11875Z" fill="#D01717"/>
</svg>
