<svg xmlns="http://www.w3.org/2000/svg" width="16" height="16" viewBox="0 0 16 16" fill="none">
  <path d="M4.75925 15.7778C5.47517 15.7778 6.05554 15.1974 6.05554 14.4815C6.05554 13.7656 5.47517 13.1852 4.75925 13.1852C4.04332 13.1852 3.46295 13.7656 3.46295 14.4815C3.46295 15.1974 4.04332 15.7778 4.75925 15.7778Z" fill="#0066FF"/>
  <path d="M11.2408 15.7778C11.9567 15.7778 12.5371 15.1974 12.5371 14.4815C12.5371 13.7656 11.9567 13.1852 11.2408 13.1852C10.5248 13.1852 9.94446 13.7656 9.94446 14.4815C9.94446 15.1974 10.5248 15.7778 11.2408 15.7778Z" fill="#0066FF"/>
  <path d="M15.1296 2.16667H13.8333V0.870377C13.8333 0.698478 13.765 0.533619 13.6435 0.412067C13.5219 0.290516 13.3571 0.222229 13.1852 0.222229C13.0133 0.222229 12.8484 0.290516 12.7269 0.412067C12.6053 0.533619 12.537 0.698478 12.537 0.870377V2.16667H11.2407C11.0688 2.16667 10.904 2.23496 10.7824 2.35651C10.6609 2.47806 10.5926 2.64292 10.5926 2.81482C10.5926 2.98672 10.6609 3.15158 10.7824 3.27313C10.904 3.39468 11.0688 3.46297 11.2407 3.46297H12.537V4.75927C12.537 4.93117 12.6053 5.09602 12.7269 5.21758C12.8484 5.33913 13.0133 5.40741 13.1852 5.40741C13.3571 5.40741 13.5219 5.33913 13.6435 5.21758C13.765 5.09602 13.8333 4.93117 13.8333 4.75927V3.46297H15.1296C15.3015 3.46297 15.4664 3.39468 15.5879 3.27313C15.7095 3.15158 15.7778 2.98672 15.7778 2.81482C15.7778 2.64292 15.7095 2.47806 15.5879 2.35651C15.4664 2.23496 15.3015 2.16667 15.1296 2.16667Z" fill="#0066FF"/>
  <path d="M14.3331 6.52612C14.2493 6.51044 14.1632 6.51154 14.0798 6.52938C13.9964 6.54721 13.9174 6.58142 13.8474 6.63001C13.7773 6.6786 13.7176 6.74062 13.6717 6.81246C13.6258 6.8843 13.5946 6.96454 13.5799 7.04852C13.4991 7.49714 13.2632 7.9031 12.9135 8.19548C12.5638 8.48787 12.1224 8.64809 11.6666 8.64815H3.7339L3.12464 3.46297H8.64815C8.82005 3.46297 8.98491 3.39468 9.10646 3.27313C9.22802 3.15158 9.2963 2.98672 9.2963 2.81482C9.2963 2.64292 9.22802 2.47806 9.10646 2.35651C8.98491 2.23496 8.82005 2.16667 8.64815 2.16667H2.97167L2.94445 1.93853C2.88859 1.46577 2.66125 1.02992 2.3055 0.713593C1.94975 0.397264 1.49031 0.222432 1.01427 0.222229L0.870377 0.222229C0.698478 0.222229 0.533619 0.290516 0.412067 0.412067C0.290516 0.533619 0.222229 0.698478 0.222229 0.870377C0.222229 1.04228 0.290516 1.20714 0.412067 1.32869C0.533619 1.45024 0.698478 1.51853 0.870377 1.51853H1.01427C1.17302 1.51855 1.32624 1.57683 1.44488 1.68232C1.56351 1.78781 1.6393 1.93318 1.65788 2.09084L2.54973 9.67417C2.64232 10.4628 3.02124 11.1901 3.61458 11.7178C4.20791 12.2455 4.97436 12.5371 5.76843 12.537H12.537C12.7089 12.537 12.8738 12.4688 12.9954 12.3472C13.1169 12.2257 13.1852 12.0608 13.1852 11.8889C13.1852 11.717 13.1169 11.5521 12.9954 11.4306C12.8738 11.309 12.7089 11.2407 12.537 11.2407H5.76843C5.36627 11.2408 4.97397 11.1162 4.64559 10.884C4.3172 10.6519 4.06888 10.3236 3.93482 9.94445H11.6666C12.4263 9.94452 13.1619 9.67768 13.7449 9.19054C14.3279 8.70339 14.7212 8.02691 14.8561 7.27927C14.8713 7.19547 14.8697 7.1095 14.8516 7.02629C14.8335 6.94308 14.7992 6.86425 14.7507 6.79431C14.7021 6.72436 14.6402 6.66468 14.5685 6.61866C14.4969 6.57264 14.4169 6.5412 14.3331 6.52612Z" fill="#0066FF"/>
</svg>