<svg xmlns="http://www.w3.org/2000/svg" width="217" height="97" viewBox="0 0 217 97" fill="none">
  <path d="M62.0812 27.4094L58.3332 38.5508C57.2378 41.8068 54.186 44 50.7507 44H27.7349C26.6684 44 25.6127 44.2132 24.6298 44.6272L1.22373 54.4846C0.482187 54.7969 0 55.5232 0 56.3278V89C0 93.4183 3.58172 97 8 97H208C212.418 97 216 93.4183 216 89V26.5L205.686 18.7648C203.405 17.0534 200.384 16.6864 197.759 17.8016L189.88 21.1483C189.33 21.382 188.755 21.5533 188.166 21.659L168.515 25.189C165.719 25.6913 162.865 24.6727 161.019 22.513L150.122 9.76431C146.381 5.38763 139.381 6.27713 136.853 11.4503L129.5 26.5L119.298 53.8151C117.049 59.8371 108.975 60.8812 105.268 55.6295L96.5421 43.268C96.1819 42.7577 95.7633 42.2915 95.2946 41.8786L74.9519 23.9574C70.661 20.1772 63.9045 21.9893 62.0812 27.4094Z" fill="url(#paint0_linear_77_1609)"/>
  <path d="M0.829163 55L24.5926 44.6639C25.5994 44.226 26.6856 44 27.7835 44H50.7507C54.186 44 57.2378 41.8068 58.3332 38.5508L62.0505 27.5006C63.8819 22.0566 70.6832 20.2592 74.9651 24.0875L94.4083 41.471C94.8018 41.8228 95.1595 42.2127 95.4762 42.6349L105.571 56.0949C109.397 61.1958 117.361 59.9902 119.505 53.9856L129.5 26L136.814 11.3177C139.37 6.18787 146.332 5.33043 150.056 9.68697L161.019 22.513C162.865 24.6727 165.719 25.6913 168.515 25.189L188.166 21.659C188.755 21.5533 189.33 21.382 189.88 21.1483L197.872 17.7535C200.436 16.6642 203.383 16.9875 205.65 18.6068L216 26" stroke="#0066FF" stroke-width="1.5" stroke-linecap="round"/>
  <defs>
    <linearGradient id="paint0_linear_77_1609" x1="108" y1="-49" x2="108" y2="97" gradientUnits="userSpaceOnUse">
      <stop stop-color="#0066FF" stop-opacity="0.5"/>
      <stop offset="1" stop-color="#0066FF" stop-opacity="0"/>
    </linearGradient>
  </defs>
</svg>