<svg xmlns="http://www.w3.org/2000/svg" width="20" height="20" viewBox="0 0 20 20" fill="none">
  <path d="M15.2595 10.8813C15.4491 11.0896 15.5556 11.3722 15.5556 11.6668C15.5556 11.9614 15.4491 12.244 15.2595 12.4524L10.7089 17.4525C10.5192 17.6608 10.2621 17.7778 9.99391 17.7778C9.72576 17.7778 9.46859 17.6608 9.27896 17.4525L4.72833 12.4524C4.54412 12.2428 4.44219 11.9622 4.4445 11.6708C4.4468 11.3795 4.55315 11.1008 4.74065 10.8948C4.92814 10.6888 5.18178 10.5719 5.44692 10.5694C5.71207 10.5669 5.96751 10.6788 6.15824 10.8812L8.98266 13.8891L8.98266 3.33336C8.98266 3.03867 9.0892 2.75605 9.27885 2.54767C9.4685 2.33929 9.72571 2.22223 9.99391 2.22223C10.2621 2.22223 10.5193 2.33929 10.709 2.54767C10.8986 2.75605 11.0052 3.03867 11.0052 3.33336L11.0052 13.8891L13.8296 10.8813C14.0192 10.6729 14.2764 10.5559 14.5445 10.5559C14.8127 10.5559 15.0699 10.6729 15.2595 10.8813Z" fill="#12B76A"/>
</svg>