

<svg xmlns="http://www.w3.org/2000/svg" width="261" height="139" viewBox="0 0 261 139" fill="none">
  <path d="M76.6984 58.5052L52.0145 62.9564C50.0735 63.3064 48.3303 64.3611 47.1194 65.9179L32.9491 84.1369C32.0032 85.3531 30.7262 86.2702 29.2717 86.7781L1.34063 96.5318C0.537772 96.8122 0 97.5696 0 98.42V131C0 135.418 3.58172 139 8 139H252.5C256.918 139 260.5 135.418 260.5 131V0.5L245.331 18.9874C244.781 19.658 244.343 20.4136 244.035 21.2247L232.262 52.263C230.236 57.605 223.425 59.1623 219.278 55.2314L194.746 31.9737C191.767 29.1491 187.133 29.0383 184.022 31.7172L179.063 35.9877C175.183 39.3288 169.206 38.2155 166.79 33.7013L151.987 6.05142C148.985 0.444085 140.957 0.41269 137.911 5.99638L121.015 36.9725C119.246 40.2155 115.487 41.8257 111.919 40.8685L102.367 38.3059C99.393 37.5079 96.2245 38.4881 94.2203 40.8263L81.3527 55.8385C80.1544 57.2366 78.5105 58.1784 76.6984 58.5052Z" fill="url(#paint0_linear_65_1311)"/>
  <defs>
    <linearGradient id="paint0_linear_65_1311" x1="130.25" y1="-7" x2="130.25" y2="139" gradientUnits="userSpaceOnUse">
      <stop stop-color="#0066FF" stop-opacity="0.5"/>
      <stop offset="1" stop-color="#0066FF" stop-opacity="0"/>
    </linearGradient>
  </defs>
</svg>
