<svg width="14" height="16" viewBox="0 0 14 16" fill="none" xmlns="http://www.w3.org/2000/svg">
<g id="Group 10">
<path id="Vector" d="M10.5803 0.222229H3.41976C2.60149 0.223258 1.81702 0.565019 1.23842 1.17255C0.659814 1.78007 0.334324 2.60376 0.333344 3.46294V15.1295C0.33343 15.2474 0.364138 15.363 0.422159 15.4639C0.480181 15.5649 0.56332 15.6473 0.662626 15.7023C0.761932 15.7573 0.873645 15.7828 0.985739 15.7761C1.09783 15.7694 1.20606 15.7307 1.29878 15.6642L3.70989 14.7315L5.00989 15.6642C5.1126 15.738 5.23417 15.7776 5.35865 15.7776C5.48313 15.7776 5.60471 15.738 5.70742 15.6642L7.00371 14.7315L8.30001 15.6642C8.40278 15.7382 8.52447 15.7778 8.64908 15.7778C8.77369 15.7778 8.89539 15.7382 8.99816 15.6642L10.2945 14.7322L12.7019 15.6635C12.7945 15.7298 12.9026 15.7684 13.0146 15.775C13.1265 15.7816 13.2381 15.7561 13.3373 15.7012C13.4365 15.6463 13.5195 15.5641 13.5776 15.4634C13.6356 15.3626 13.6664 15.2472 13.6667 15.1295V3.46294C13.6657 2.60376 13.3402 1.78007 12.7616 1.17255C12.183 0.565019 11.3985 0.223258 10.5803 0.222229ZM12.4321 13.898L10.642 13.4106C10.5392 13.3365 10.4173 13.2968 10.2926 13.2968C10.1679 13.2968 10.0461 13.3365 9.94322 13.4106L8.64692 14.3433L7.35063 13.4106C7.24786 13.3366 7.12616 13.297 7.00155 13.297C6.87694 13.297 6.75525 13.3366 6.65248 13.4106L5.35618 14.3433L4.05989 13.4106C3.95724 13.3369 3.83578 13.2975 3.71143 13.2975C3.58708 13.2975 3.46562 13.3369 3.36297 13.4106L1.56791 13.898V3.46294C1.56791 2.94724 1.76302 2.45267 2.11031 2.08802C2.4576 1.72337 2.92862 1.51851 3.41976 1.51851H10.5803C11.0714 1.51851 11.5424 1.72337 11.8897 2.08802C12.237 2.45267 12.4321 2.94724 12.4321 3.46294V13.898Z" fill="#0066FF"/>
<path id="Vector_2" d="M9.46916 5.40738H4.53089C4.18997 5.40738 3.9136 5.69756 3.9136 6.05552C3.9136 6.41348 4.18997 6.70366 4.53089 6.70366H9.46916C9.81008 6.70366 10.0864 6.41348 10.0864 6.05552C10.0864 5.69756 9.81008 5.40738 9.46916 5.40738Z" fill="#0066FF"/>
<path id="Vector_3" d="M8.23459 7.99989H4.53089C4.18997 7.99989 3.9136 8.29008 3.9136 8.64803C3.9136 9.00599 4.18997 9.29618 4.53089 9.29618H8.23459C8.57551 9.29618 8.85188 9.00599 8.85188 8.64803C8.85188 8.29008 8.57551 7.99989 8.23459 7.99989Z" fill="#0066FF"/>
</g>
</svg>
