<svg width="24" height="24" viewBox="0 0 24 24" fill="none" xmlns="http://www.w3.org/2000/svg">
<g id="Icon/Privacy">
<path id="Vector" d="M12.0001 0C8.45083 0 5.53852 2.91231 5.53852 6.46154V7.38462H4.61544C3.60006 7.38462 2.76929 8.21538 2.76929 9.23077V20.3077C2.76929 21.3231 3.60006 22.1538 4.61544 22.1538H19.3847C20.4001 22.1538 21.2308 21.3231 21.2308 20.3077V9.23077C21.2308 8.21538 20.4001 7.38462 19.3847 7.38462H18.4616V6.46154C18.4616 2.91231 15.5493 0 12.0001 0ZM12.0001 1.84615C14.5431 1.84615 16.6154 3.91846 16.6154 6.46154V7.38462H7.38467V6.46154C7.38467 3.91846 9.45698 1.84615 12.0001 1.84615ZM12.0001 10.1538C14.5847 10.1538 16.6154 12.1846 16.6154 14.7692C16.6154 17.3538 14.5847 19.3846 12.0001 19.3846C9.41544 19.3846 7.38467 17.3538 7.38467 14.7692C7.38467 12.1846 9.41544 10.1538 12.0001 10.1538ZM12.0001 12C10.4308 12 9.23083 13.2 9.23083 14.7692C9.23083 16.3385 10.4308 17.5385 12.0001 17.5385C13.5693 17.5385 14.7693 16.3385 14.7693 14.7692C14.7693 14.4923 14.6825 14.2098 14.6825 13.9329C14.4056 14.3945 13.9385 14.7692 13.3847 14.7692C12.6462 14.7692 12.0001 14.1231 12.0001 13.3846C12.0001 12.8308 12.3748 12.3637 12.8364 12.0868C12.5594 12.0868 12.277 12 12.0001 12Z" fill="#999999"/>
</g>
</svg>
