<svg xmlns="http://www.w3.org/2000/svg" width="12" height="12" viewBox="0 0 12 12" fill="none">
  <path d="M3.64122 1.84362C3.59611 1.79589 3.56084 1.73974 3.53743 1.67837C3.51403 1.61701 3.50293 1.55163 3.50479 1.48598C3.50665 1.42033 3.52142 1.35569 3.54826 1.29575C3.5751 1.2358 3.61348 1.18173 3.66122 1.13662C3.70895 1.09152 3.7651 1.05625 3.82647 1.03284C3.88783 1.00943 3.95321 0.998343 4.01886 1.0002C4.08451 1.00206 4.14915 1.01683 4.20909 1.04367C4.26904 1.07051 4.32311 1.10889 4.36822 1.15662L8.61822 5.65662C8.70598 5.74946 8.75489 5.87237 8.75489 6.00012C8.75489 6.12788 8.70598 6.25079 8.61822 6.34362L4.36822 10.8441C4.3234 10.8929 4.26935 10.9323 4.20918 10.96C4.14902 10.9877 4.08395 11.0032 4.01775 11.0056C3.95156 11.0079 3.88555 10.9971 3.82357 10.9737C3.76159 10.9503 3.70488 10.9149 3.65672 10.8694C3.60856 10.8239 3.56991 10.7693 3.54303 10.7088C3.51615 10.6483 3.50156 10.583 3.50012 10.5168C3.49868 10.4505 3.51041 10.3847 3.53463 10.323C3.55885 10.2614 3.59508 10.2052 3.64122 10.1576L7.56722 6.00012L3.64122 1.84362Z" fill="#1A1A1A"/>
</svg>