<svg xmlns="http://www.w3.org/2000/svg" width="20" height="20" viewBox="0 0 20 20" fill="none">
  <path d="M5.44166 2.89177C5.5587 3.00896 5.62444 3.16781 5.62444 3.33343C5.62444 3.49906 5.5587 3.65791 5.44166 3.7751L3.35833 5.85843C3.23985 5.96883 3.08314 6.02894 2.92123 6.02608C2.75931 6.02322 2.60482 5.95763 2.49031 5.84312C2.3758 5.72861 2.31021 5.57412 2.30735 5.4122C2.30449 5.25029 2.36459 5.09358 2.47499 4.9751L4.55833 2.89177C4.67552 2.77473 4.83437 2.70898 4.99999 2.70898C5.16562 2.70898 5.32447 2.77473 5.44166 2.89177Z" fill="#12B76A"/>
  <path fill-rule="evenodd" clip-rule="evenodd" d="M9.99996 3.75C8.12134 3.75 6.31967 4.49628 4.99129 5.82466C3.6629 7.15304 2.91663 8.95472 2.91663 10.8333C2.91663 12.712 3.6629 14.5136 4.99129 15.842C6.31967 17.1704 8.12134 17.9167 9.99996 17.9167C11.8786 17.9167 13.6803 17.1704 15.0086 15.842C16.337 14.5136 17.0833 12.712 17.0833 10.8333C17.0833 8.95472 16.337 7.15304 15.0086 5.82466C13.6803 4.49628 11.8786 3.75 9.99996 3.75ZM10.625 6.66667C10.625 6.50091 10.5591 6.34194 10.4419 6.22473C10.3247 6.10751 10.1657 6.04167 9.99996 6.04167C9.8342 6.04167 9.67523 6.10751 9.55802 6.22473C9.44081 6.34194 9.37496 6.50091 9.37496 6.66667V10.8333C9.37492 10.9393 9.40181 11.0435 9.45312 11.1362C9.50444 11.229 9.57848 11.3071 9.66829 11.3633L12.1683 12.9258C12.3089 13.0138 12.4786 13.0423 12.6402 13.0051C12.7202 12.9867 12.7958 12.9527 12.8627 12.9051C12.9296 12.8574 12.9864 12.7971 13.03 12.7275C13.0735 12.6579 13.1029 12.5804 13.1165 12.4994C13.1301 12.4185 13.1277 12.3356 13.1093 12.2556C13.0908 12.1756 13.0568 12.1 13.0092 12.0331C12.9616 11.9662 12.9012 11.9094 12.8316 11.8658L10.625 10.4867V6.66667Z" fill="#12B76A"/>
  <path d="M14.5584 3.77495C14.448 3.65647 14.3879 3.49977 14.3907 3.33785C14.3936 3.17593 14.4592 3.02145 14.5737 2.90694C14.6882 2.79242 14.8427 2.72683 15.0046 2.72397C15.1665 2.72112 15.3232 2.78122 15.4417 2.89162L17.525 4.97495C17.6354 5.09343 17.6955 5.25014 17.6927 5.41206C17.6898 5.57397 17.6242 5.72846 17.5097 5.84297C17.3952 5.95748 17.2407 6.02308 17.0788 6.02593C16.9169 6.02879 16.7602 5.96869 16.6417 5.85829L14.5584 3.77495Z" fill="#12B76A"/>
</svg>