<svg width="4" height="14" viewBox="0 0 4 14" fill="none" xmlns="http://www.w3.org/2000/svg">
<g id="Group">
<path id="Vector" d="M3.55883 1.57889C3.55889 1.7863 3.51811 1.9917 3.4388 2.18334C3.35949 2.37499 3.2432 2.54914 3.09659 2.69585C2.94998 2.84256 2.7759 2.95895 2.58431 3.03838C2.39271 3.11782 2.18734 3.15874 1.97993 3.1588C1.77252 3.15887 1.56713 3.11808 1.37548 3.03877C1.18384 2.95946 1.00969 2.84318 0.862979 2.69657C0.716271 2.54995 0.599878 2.37588 0.520444 2.18428C0.44101 1.99268 0.400091 1.78732 0.400024 1.57991C0.39989 1.16103 0.566162 0.759245 0.862262 0.462955C1.15836 0.166664 1.56003 0.000134641 1.97892 8.16079e-08C2.3978 -0.000134478 2.79958 0.166137 3.09587 0.462237C3.39216 0.758337 3.55869 1.16001 3.55883 1.57889Z" fill="#666666"/>
<path id="Vector_2" d="M1.97996 8.57844C2.85195 8.57844 3.55885 7.87155 3.55885 6.99955C3.55885 6.12755 2.85195 5.42065 1.97996 5.42065C1.10796 5.42065 0.401062 6.12755 0.401062 6.99955C0.401062 7.87155 1.10796 8.57844 1.97996 8.57844Z" fill="#666666"/>
<path id="Vector_3" d="M1.97996 14C2.85195 14 3.55885 13.2931 3.55885 12.4211C3.55885 11.5491 2.85195 10.8422 1.97996 10.8422C1.10796 10.8422 0.401062 11.5491 0.401062 12.4211C0.401062 13.2931 1.10796 14 1.97996 14Z" fill="#666666"/>
</g>
</svg>
