<svg xmlns="http://www.w3.org/2000/svg" width="16" height="17" viewBox="0 0 16 17" fill="none">
<path d="M10.2497 14.6271C10.2797 14.8604 10.2047 15.1093 10.0322 15.2726C9.96284 15.3447 9.88044 15.4019 9.78972 15.4409C9.699 15.4799 9.60175 15.5 9.50354 15.5C9.40533 15.5 9.30808 15.4799 9.21736 15.4409C9.12665 15.4019 9.04424 15.3447 8.97486 15.2726L5.96778 12.1541C5.88599 12.0712 5.82381 11.9698 5.78608 11.8578C5.74835 11.7458 5.73611 11.6263 5.75031 11.5086V7.52696L2.15831 2.75983C2.03653 2.59771 1.98158 2.39219 2.00547 2.18819C2.02936 1.98418 2.13014 1.79827 2.28579 1.67109C2.42827 1.56221 2.58575 1.5 2.75073 1.5H13.2493C13.4142 1.5 13.5717 1.56221 13.7142 1.67109C13.8699 1.79827 13.9706 1.98418 13.9945 2.18819C14.0184 2.39219 13.9635 2.59771 13.8417 2.75983L10.2497 7.52696V14.6271ZM4.28051 3.05534L7.2501 6.99037V11.2831L8.7499 12.8385V6.98259L11.7195 3.05534H4.28051Z" fill="#666666"/>
</svg>
