<svg xmlns="http://www.w3.org/2000/svg" width="16" height="16" viewBox="0 0 16 16" fill="none">
<path fill-rule="evenodd" clip-rule="evenodd" d="M11.0921 10.1949C11.8836 9.17399 12.2567 7.88976 12.1353 6.60347C12.014 5.31717 11.4073 4.12544 10.4389 3.27071C9.47036 2.41599 8.21275 1.96247 6.92188 2.00243C5.631 2.04239 4.40383 2.57283 3.49001 3.48583C2.5754 4.39946 2.04345 5.62759 2.00255 6.91996C1.96165 8.21233 2.41488 9.47168 3.26989 10.4414C4.1249 11.411 5.31733 12.0181 6.6042 12.1388C7.89106 12.2594 9.1755 11.8847 10.1958 11.0909L10.2231 11.1195L12.9158 13.8139C12.9747 13.8729 13.0448 13.9197 13.1218 13.9516C13.1989 13.9836 13.2815 14 13.3649 14C13.4483 14 13.5309 13.9836 13.6079 13.9516C13.685 13.9197 13.755 13.8729 13.814 13.8139C13.873 13.7549 13.9197 13.6849 13.9517 13.6078C13.9836 13.5307 14 13.4481 14 13.3646C14 13.2812 13.9836 13.1986 13.9517 13.1215C13.9197 13.0444 13.873 12.9743 13.814 12.9153L11.1206 10.2216C11.1114 10.2124 11.1018 10.2035 11.0921 10.1949ZM9.77427 4.38439C10.1327 4.73713 10.4177 5.15737 10.6129 5.62087C10.8082 6.08437 10.9097 6.58195 10.9118 7.08492C10.9138 7.58788 10.8163 8.08627 10.6249 8.55135C10.4334 9.01642 10.1518 9.43897 9.7963 9.79462C9.44078 10.1503 9.0184 10.432 8.55352 10.6235C8.08863 10.8151 7.59043 10.9126 7.08767 10.9106C6.58491 10.9085 6.08752 10.8069 5.62421 10.6116C5.1609 10.4163 4.74082 10.1311 4.38822 9.77259C3.68357 9.05608 3.29048 8.09005 3.29457 7.08492C3.29866 6.07978 3.6996 5.11698 4.41006 4.40624C5.12052 3.6955 6.08294 3.29439 7.08767 3.2903C8.0924 3.28621 9.05805 3.67946 9.77427 4.38439Z" fill="#B3B3B3"/>
</svg>
