<svg xmlns="http://www.w3.org/2000/svg" width="20" height="20" viewBox="0 0 20 20" fill="none">
  <path d="M10.0008 1.66675C14.6033 1.66675 18.3342 5.39758 18.3342 10.0001C18.3342 14.6026 14.6033 18.3334 10.0008 18.3334C8.52814 18.3358 7.08137 17.9461 5.80916 17.2042L1.67083 18.3334L2.79749 14.1934C2.05507 12.9208 1.66503 11.4734 1.66749 10.0001C1.66749 5.39758 5.39833 1.66675 10.0008 1.66675ZM7.16083 6.08341L6.99416 6.09008C6.88626 6.09665 6.78081 6.125 6.68416 6.17341C6.59376 6.22461 6.51124 6.2886 6.43916 6.36341C6.33916 6.45758 6.28249 6.53925 6.22166 6.61841C5.91343 7.01917 5.74747 7.51118 5.74999 8.01675C5.75166 8.42508 5.85833 8.82258 6.02499 9.19425C6.36583 9.94591 6.92666 10.7417 7.66666 11.4792C7.84499 11.6567 8.01999 11.8351 8.20833 12.0009C9.12782 12.8105 10.2235 13.3943 11.4083 13.7059L11.8817 13.7784C12.0358 13.7867 12.19 13.7751 12.345 13.7676C12.5877 13.7551 12.8247 13.6893 13.0392 13.5751C13.1483 13.5189 13.2548 13.4577 13.3583 13.3917C13.3583 13.3917 13.3942 13.3684 13.4625 13.3167C13.575 13.2334 13.6442 13.1742 13.7375 13.0767C13.8067 13.0051 13.8667 12.9209 13.9125 12.8251C13.9775 12.6892 14.0425 12.4301 14.0692 12.2142C14.0892 12.0492 14.0833 11.9592 14.0808 11.9034C14.0775 11.8142 14.0033 11.7217 13.9225 11.6826L13.4375 11.4651C13.4375 11.4651 12.7125 11.1492 12.2692 10.9476C12.2228 10.9273 12.1731 10.9157 12.1225 10.9134C12.0655 10.9076 12.0079 10.914 11.9535 10.9322C11.8992 10.9505 11.8494 10.9802 11.8075 11.0192C11.8033 11.0176 11.7475 11.0651 11.145 11.7951C11.1104 11.8415 11.0628 11.8767 11.0082 11.896C10.9535 11.9153 10.8944 11.9178 10.8383 11.9034C10.784 11.8889 10.7309 11.8705 10.6792 11.8484C10.5758 11.8051 10.54 11.7884 10.4692 11.7584C9.99088 11.5497 9.54806 11.2677 9.15666 10.9226C9.05166 10.8309 8.95416 10.7309 8.85416 10.6342C8.52631 10.3203 8.24059 9.96509 8.00416 9.57758L7.95499 9.49841C7.91968 9.44522 7.89113 9.38783 7.86999 9.32758C7.83833 9.20508 7.92083 9.10675 7.92083 9.10675C7.92083 9.10675 8.12333 8.88508 8.21749 8.76508C8.30916 8.64841 8.38666 8.53508 8.43666 8.45425C8.53499 8.29592 8.56583 8.13341 8.51416 8.00758C8.28083 7.43758 8.03916 6.87008 7.79083 6.30675C7.74166 6.19508 7.59583 6.11508 7.46333 6.09925C7.41833 6.09425 7.37332 6.08925 7.32832 6.08591C7.21641 6.08035 7.10427 6.08147 6.99249 6.08925L7.15999 6.08258L7.16083 6.08341Z" fill="#12B76A"/>
</svg>